<?xml version="1.0" standalone="no"?>
<!DOCTYPE svg PUBLIC "-//W3C//DTD SVG 20010904//EN"
 "http://www.w3.org/TR/2001/REC-SVG-20010904/DTD/svg10.dtd">
<svg version="1.0" xmlns="http://www.w3.org/2000/svg"
 width="512.000000pt" height="512.000000pt" viewBox="0 0 512.000000 512.000000"
 preserveAspectRatio="xMidYMid meet">

<g transform="translate(0.000000,512.000000) scale(0.100000,-0.100000)"
fill="#000000" stroke="none">
<path d="M1448 5105 c-185 -30 -395 -125 -435 -198 -34 -61 -6 -107 103 -169
58 -33 71 -44 57 -49 -10 -4 -62 -19 -115 -34 -183 -52 -389 -167 -568 -317
-86 -73 -103 -108 -78 -162 20 -41 37 -48 245 -101 126 -33 162 -45 145 -51
-13 -4 -61 -25 -105 -46 -306 -148 -534 -406 -641 -728 -91 -272 -70 -330 118
-330 l86 0 -43 -53 c-135 -166 -210 -373 -211 -584 -1 -99 0 -103 27 -130 27
-27 31 -28 151 -31 l123 -4 -33 -66 c-67 -138 -94 -257 -94 -422 0 -177 21
-264 69 -293 45 -27 70 -21 200 43 67 33 124 60 125 60 2 0 6 -46 9 -102 8
-165 57 -313 151 -457 90 -139 149 -182 207 -150 13 7 119 94 235 194 l210
183 30 -16 c18 -10 59 -17 108 -19 l80 -2 58 -87 c32 -48 89 -122 128 -164
l69 -77 3 -341 3 -342 28 -27 27 -28 640 0 640 0 27 28 28 27 3 342 3 341 69
77 c39 42 97 117 129 165 l59 88 63 -1 c41 -1 80 5 109 16 l45 18 210 -181
c116 -100 221 -187 234 -194 58 -32 117 11 207 150 93 144 142 292 159 486 l7
72 120 -60 c67 -32 132 -59 145 -59 89 0 123 86 123 310 0 165 -27 284 -95
422 l-33 68 119 0 c117 0 119 0 151 29 l33 29 0 104 c-1 206 -79 421 -211 584
l-44 54 91 0 c146 0 181 34 160 157 -29 164 -122 382 -221 515 -113 150 -286
295 -450 378 l-64 32 54 17 c30 10 101 41 158 71 83 42 107 59 119 86 26 54 9
89 -77 162 -178 150 -384 265 -568 317 -53 15 -104 29 -112 32 -8 2 12 19 50
40 84 47 108 69 116 108 10 53 -17 88 -106 143 -249 153 -607 182 -935 76
-157 -51 -352 -160 -477 -265 l-36 -31 -108 80 c-165 123 -336 202 -534 248
-135 31 -346 40 -472 19z m407 -210 c206 -39 413 -145 583 -299 106 -96 136
-98 228 -15 330 299 736 407 1097 292 26 -8 47 -18 47 -21 0 -4 -57 -40 -126
-81 -162 -96 -184 -125 -152 -196 17 -37 57 -55 124 -55 157 0 390 -58 546
-136 80 -40 228 -134 228 -145 0 -12 -51 -27 -255 -78 -181 -45 -203 -53 -227
-81 -30 -33 -35 -64 -16 -105 15 -34 40 -47 217 -107 213 -72 305 -123 435
-237 126 -112 235 -276 291 -441 l24 -70 -156 0 -155 0 -34 -34 c-36 -36 -43
-70 -23 -109 6 -12 60 -71 119 -132 58 -60 121 -132 139 -158 58 -86 102 -199
119 -309 l9 -58 -159 0 c-173 0 -205 -8 -227 -57 -19 -42 -12 -69 34 -134 72
-102 116 -185 142 -267 24 -76 41 -199 35 -259 l-3 -33 -149 75 c-83 41 -159
75 -169 75 -35 0 -69 -21 -87 -55 -16 -30 -16 -40 -5 -104 30 -165 6 -345 -63
-486 -62 -126 -39 -130 -236 41 l-173 149 -2 100 c-2 106 -11 148 -51 257
l-26 68 67 72 c107 118 155 244 140 368 -4 30 -25 101 -46 158 -49 129 -59
215 -46 386 48 598 -354 1119 -943 1227 -53 10 -166 14 -390 14 -341 0 -398
-6 -552 -56 -407 -132 -703 -482 -774 -914 -13 -80 -14 -130 -8 -245 11 -212
7 -262 -28 -360 -61 -171 -72 -227 -61 -308 14 -97 57 -180 138 -270 l67 -72
-30 -83 c-35 -97 -57 -229 -48 -292 l6 -44 -172 -148 c-94 -82 -175 -148 -181
-148 -19 0 -97 166 -117 249 -23 92 -27 243 -8 343 10 57 10 68 -6 98 -18 34
-52 55 -87 55 -10 0 -86 -34 -169 -75 l-149 -75 -3 33 c-6 62 13 193 38 267
29 83 71 162 139 259 46 65 53 92 34 134 -22 49 -53 57 -228 57 l-160 0 5 33
c20 107 39 171 75 241 50 98 104 168 209 271 108 106 125 140 99 198 -22 49
-54 57 -217 57 l-151 0 24 71 c86 250 271 466 504 588 42 22 142 62 223 90 80
27 159 56 175 64 53 28 68 95 31 142 -32 41 -238 138 -352 166 -53 13 -96 25
-96 29 0 12 170 111 250 145 143 61 349 105 493 105 58 0 99 19 115 55 27 60
5 104 -75 150 -96 55 -203 128 -198 135 7 12 134 41 217 50 88 10 226 4 323
-15z m1000 -1185 c116 -14 191 -34 291 -80 371 -171 585 -547 547 -960 -8 -81
-9 -85 -33 -88 -22 -3 -29 5 -55 60 -38 80 -139 183 -217 220 -201 98 -413 67
-573 -83 l-63 -59 -194 0 -194 0 -39 41 c-154 160 -388 201 -585 103 -121 -61
-208 -161 -251 -288 -10 -28 -24 -52 -32 -54 -21 -4 -31 78 -31 258 1 117 5
161 22 225 25 91 84 219 138 301 137 207 377 359 629 399 98 16 515 19 640 5z
m-818 -1004 c221 -59 295 -334 133 -496 -116 -116 -298 -118 -415 -4 -135 131
-120 345 32 454 77 56 157 71 250 46z m1249 -20 c61 -28 115 -82 146 -145 32
-66 32 -177 -1 -245 -31 -63 -90 -122 -150 -149 -71 -33 -179 -30 -253 6 -202
99 -224 382 -39 509 89 62 195 71 297 24z m-624 -244 c-5 -83 13 -173 46 -239
19 -36 19 -38 1 -122 -14 -62 -26 -92 -46 -113 -52 -55 -135 -60 -191 -13 -35
29 -47 57 -65 146 -13 61 -12 69 5 102 33 66 51 156 46 239 l-5 78 107 0 107
0 -5 -78z m1048 -109 c6 -26 25 -79 42 -118 55 -127 40 -222 -51 -309 l-40
-39 -46 39 c-26 21 -67 53 -91 70 -25 17 -48 34 -51 38 -4 4 14 28 40 54 66
68 114 153 133 238 12 58 20 74 34 74 13 0 21 -13 30 -47z m-2229 -50 c23 -73
68 -151 120 -207 29 -32 48 -61 43 -65 -5 -5 -26 -20 -48 -34 -21 -14 -60 -46
-86 -71 l-48 -46 -55 59 c-87 94 -95 161 -38 299 15 37 31 75 34 85 4 11 17
17 36 17 25 0 31 -5 42 -37z m729 -389 c42 -12 67 -28 102 -66 71 -73 142
-103 248 -103 106 0 177 30 248 103 54 57 109 78 231 88 98 8 201 -14 301 -62
92 -45 200 -150 248 -241 36 -69 72 -195 72 -256 0 -49 -31 -87 -69 -87 -16 0
-96 47 -214 125 -109 73 -198 125 -212 125 -59 0 -97 -43 -110 -122 -8 -51
-53 -88 -108 -88 -35 0 -59 11 -147 70 -199 133 -281 133 -480 0 -88 -59 -112
-70 -147 -70 -55 0 -100 37 -108 88 -13 79 -51 122 -110 122 -14 0 -103 -52
-212 -125 -199 -132 -226 -143 -263 -103 -26 28 -26 81 0 182 28 109 74 190
155 271 80 81 179 136 285 160 78 18 211 13 290 -11z m500 -693 c117 -77 160
-94 235 -93 101 1 191 43 245 116 l27 35 54 -36 c30 -20 58 -39 62 -43 12 -11
-69 -131 -140 -209 -211 -234 -506 -349 -762 -297 -180 37 -320 114 -462 256
-79 78 -189 220 -189 243 0 4 26 24 59 46 l58 40 60 -58 c69 -67 126 -91 220
-91 81 0 136 21 248 97 50 33 97 63 105 66 32 13 78 -6 180 -72z m-433 -694
c241 -77 481 -56 716 60 l67 33 0 -200 0 -200 -500 0 -500 0 0 200 0 200 68
-34 c37 -18 104 -45 149 -59z"/>
<path d="M2125 3511 c-49 -20 -72 -74 -55 -126 22 -65 20 -65 497 -65 390 0
430 2 449 18 62 50 56 134 -11 167 -28 13 -93 15 -447 14 -227 0 -422 -4 -433
-8z"/>
<path d="M2258 3104 c-57 -31 -66 -107 -19 -155 l29 -29 292 0 292 0 29 29
c48 49 38 125 -21 156 -42 22 -562 21 -602 -1z"/>
</g>
</svg>
